HIERARCHY
ROOT Hips
{
	OFFSET 0.00 0.00 0.00
	CHANNELS 6 Xposition Yposition Zposition Xrotation Yrotation Zrotation
	JOINT RightUpLeg
	{
		OFFSET -4.47808 0.00000 0.00000
		CHANNELS 3 Xrotation Yrotation Zrotation
		JOINT RightLeg
		{
			OFFSET 0.00000 -16.40577 0.00000
			CHANNELS 3 Xrotation Yrotation Zrotation
			JOINT RightFoot
			{
				OFFSET 0.00000 -14.64414 0.00000
				CHANNELS 3 Xrotation Yrotation Zrotation
				JOINT RightToeBase
				{
					OFFSET 0.00000 -1.50274 5.60831
					CHANNELS 3 Xrotation Yrotation Zrotation
					End Site
					{
						OFFSET 0.00000 0.00000 2.95275
					}
				}
			}
		}
	}
	JOINT LeftUpLeg
	{
		OFFSET 4.47808 0.00000 0.00000
		CHANNELS 3 Xrotation Yrotation Zrotation
		JOINT LeftLeg
		{
			OFFSET 0.00000 -16.40577 0.00000
			CHANNELS 3 Xrotation Yrotation Zrotation
			JOINT LeftFoot
			{
				OFFSET 0.00000 -14.64414 0.00000
				CHANNELS 3 Xrotation Yrotation Zrotation
				JOINT LeftToeBase
				{
					OFFSET 0.00000 -1.50274 5.60831
					CHANNELS 3 Xrotation Yrotation Zrotation
					End Site
					{
						OFFSET 0.00000 0.00000 2.95275
					}
				}
			}
		}
	}
	JOINT Spine
	{
		OFFSET 0.00000 6.06821 0.00000
		CHANNELS 3 Xrotation Yrotation Zrotation
		JOINT RightShoulder
		{
			OFFSET 0.00000 10.01392 0.00000
			CHANNELS 3 Xrotation Yrotation Zrotation
			JOINT RightArm
			{
				OFFSET -7.19022 0.00000 0.00000
				CHANNELS 3 Xrotation Yrotation Zrotation
				JOINT RightForeArm
				{
					OFFSET -10.17747 0.00000 0.00000
					CHANNELS 3 Yrotation Zrotation Xrotation
					JOINT RightHand
					{
						OFFSET -8.39211 0.00000 0.00000
						CHANNELS 3 Xrotation Yrotation Zrotation
						End Site
						{
							OFFSET -3.93700 0.00000 0.00000
						}
						JOINT RightHandThumb1
						{
							OFFSET 0.00000 0.00000 0.00000
							CHANNELS 3 Xrotation Zrotation Yrotation
							End Site
							{
								OFFSET 0.00000 0.00000 3.93700
							}
						}
					}
				}
			}
		}
		JOINT LeftShoulder
		{
			OFFSET 0.00000 10.01392 0.00000
			CHANNELS 3 Xrotation Yrotation Zrotation
			JOINT LeftArm
			{
				OFFSET 7.19022 0.00000 0.00000
				CHANNELS 3 Xrotation Yrotation Zrotation
				JOINT LeftForeArm
				{
					OFFSET 10.17747 0.00000 0.00000
					CHANNELS 3 Yrotation Zrotation Xrotation
					JOINT LeftHand
					{
						OFFSET 8.39211 0.00000 0.00000
						CHANNELS 3 Xrotation Yrotation Zrotation
						End Site
						{
							OFFSET 3.93700 0.00000 0.00000
						}
						JOINT LeftHandThumb1
						{
							OFFSET 0.00000 0.00000 0.00000
							CHANNELS 3 Xrotation Zrotation Yrotation
							End Site
							{
								OFFSET 0.00000 0.00000 3.93700
							}
						}
					}
				}
			}
		}
		JOINT Head
		{
			OFFSET 0.00000 15.77748 0.00000
			CHANNELS 3 Xrotation Yrotation Zrotation
			End Site
			{
				OFFSET 0.00000 4.52755 0.00000
			}
		}
	}
}
MOTION
Frames: 23
Frame Time: 0.008333
 -3.0553 33.2133 -2.4134 7.0578 -3.7514 3.2254 -2.0681 -1.4976 0.4184 1.5942 0.0000 -0.0000 -11.5224 -3.5129 -3.8350 2.8002 0.0000 0.0000 -2.5598 -0.1024 -2.6445 4.5410 -0.0000 0.0000 -11.5039 9.2537 -8.3590 9.4212 0.0000 -0.0000 -9.3759 -3.1256 -2.6852 3.4626 -21.4955 -27.2089 -35.4347 -6.1858 36.0266 12.4607 0.0000 8.6485 -1.3412 8.2053 9.3160 32.8623 0.0000 -24.3270 -10.1406 19.0858 31.4956 -39.1161 5.8709 -31.4952 -6.6142 -0.0000 -1.4353 0.1007 3.6232 -1.5938 33.1476 -0.0000 26.2537 -1.0479 3.4847 0.5588
 -3.0543 33.2130 -2.4099 7.0551 -3.7381 3.2241 -2.0595 -1.5045 0.4170 1.5956 -0.0000 -0.0000 -11.5260 -3.5107 -3.8419 2.7681 0.0000 -0.0000 -2.5598 -0.1469 -2.6478 4.5503 -0.0000 -0.0000 -11.5137 9.2881 -8.3558 9.4355 0.0000 -0.0000 -9.3844 -3.1329 -2.6774 3.4860 -21.5327 -27.2680 -35.5017 -6.3110 36.1286 12.6449 0.0000 8.7378 -1.3825 8.3020 9.4890 32.8623 0.0000 -24.3270 -10.1382 19.0886 31.4875 -39.1147 5.8834 -31.5012 -6.6368 -0.0000 -1.4163 0.1002 3.6435 -1.5759 33.1476 -0.0000 26.2537 -1.0272 3.4939 0.5510
 -3.0542 33.2121 -2.4066 7.0535 -3.7287 3.2237 -2.0506 -1.4953 0.4163 1.5965 -0.0000 0.0000 -11.5388 -3.5270 -3.8493 2.7721 -0.0000 -0.0000 -2.5599 -0.1477 -2.6479 4.5637 0.0000 -0.0000 -11.5302 9.2868 -8.3680 9.4516 -0.0000 -0.0000 -9.3866 -3.1407 -2.6818 3.4808 -21.5233 -27.2514 -35.4870 -6.3054 36.1174 12.6386 0.0000 8.7339 -1.3905 8.3241 9.5183 32.8623 0.0000 -24.3270 -10.1559 19.0998 31.5059 -39.1094 5.9014 -31.5200 -6.6673 -0.0000 -1.4139 0.0996 3.6257 -1.5749 33.1476 -0.0000 26.2537 -1.0200 3.5218 0.5643
 -3.0532 33.2117 -2.4040 7.0530 -3.7300 3.2224 -2.0533 -1.4921 0.4154 1.6124 0.0000 -0.0000 -11.5535 -3.5328 -3.8329 2.7536 -0.0000 -0.0000 -2.5620 -0.1561 -2.6495 4.5778 -0.0000 0.0000 -11.5403 9.2920 -8.3483 9.4413 -0.0000 -0.0000 -9.3907 -3.1396 -2.6651 3.4832 -21.5277 -27.2688 -35.5155 -6.3317 36.1392 12.6487 0.0000 8.7715 -1.3866 8.3135 9.5036 32.8623 0.0000 -24.3270 -10.1355 19.1235 31.4748 -39.1076 5.8628 -31.5164 -6.6387 -0.0000 -1.4351 0.0959 3.6056 -1.5249 33.1476 -0.0000 26.2537 -1.0071 3.5369 0.5353
 -3.0528 33.2115 -2.4000 7.0492 -3.7211 3.2186 -2.0427 -1.4806 0.4173 1.6159 -0.0000 0.0000 -11.5611 -3.5538 -3.8331 2.7871 0.0000 -0.0000 -2.5569 -0.1501 -2.6483 4.5889 -0.0000 0.0000 -11.5504 9.2796 -8.3489 9.3843 0.0000 -0.0000 -9.3910 -3.1400 -2.6554 3.4716 -21.5314 -27.2806 -35.5146 -6.3641 36.1509 12.6778 0.0000 8.7699 -1.3889 8.2932 9.5418 32.8623 0.0000 -24.3270 -10.1321 19.1379 31.4536 -39.1076 5.8453 -31.5149 -6.6507 -0.0000 -1.4407 0.0933 3.6148 -1.4788 33.1476 -0.0000 26.2537 -1.0022 3.5524 0.5328
 -3.0520 33.2108 -2.3974 7.0488 -3.7081 3.2204 -2.0413 -1.5070 0.4137 1.6269 0.0000 -0.0000 -11.5771 -3.5473 -3.8265 2.7887 -0.0000 -0.0000 -2.5659 -0.1770 -2.6528 4.6118 -0.0000 0.0000 -11.5651 9.2946 -8.3518 9.4393 0.0000 0.0000 -9.3949 -3.1472 -2.6560 3.4576 -21.5197 -27.2905 -35.4834 -6.3720 36.1613 12.6837 0.0000 8.7651 -1.3780 8.2815 9.4814 32.8623 0.0000 -24.3270 -10.1464 19.1395 31.4526 -39.0858 5.8379 -31.5176 -6.6531 -0.0000 -1.4493 0.0924 3.5895 -1.4762 33.1476 -0.0000 26.2537 -0.9926 3.5800 0.5409
 -3.0524 33.2102 -2.3940 7.0481 -3.6959 3.2196 -2.0347 -1.5261 0.4139 1.6294 0.0000 -0.0000 -11.5848 -3.5259 -3.8512 2.7854 -0.0000 -0.0000 -2.5646 -0.2096 -2.6538 4.6181 0.0000 -0.0000 -11.5745 9.3241 -8.3492 9.4270 -0.0000 0.0000 -9.4043 -3.1395 -2.6583 3.4686 -21.5332 -27.2844 -35.4974 -6.3949 36.1635 12.6951 0.0000 8.7534 -1.3782 8.2682 9.4977 32.8623 0.0000 -24.3270 -10.1152 19.1439 31.4339 -39.0999 5.8381 -31.5096 -6.6872 -0.0000 -1.4601 0.0910 3.6244 -1.4397 33.1476 -0.0000 26.2537 -0.9744 3.5693 0.5471
 -3.0534 33.2090 -2.3899 7.0333 -3.6881 3.2135 -2.0108 -1.5239 0.4203 1.6293 -0.0000 -0.0000 -11.5953 -3.5409 -3.8494 2.7445 0.0000 0.0000 -2.5489 -0.2093 -2.6476 4.6284 0.0000 -0.0000 -11.5913 9.3009 -8.3163 9.4143 -0.0000 0.0000 -9.3884 -3.1416 -2.6625 3.4628 -21.5321 -27.2657 -35.4772 -6.3785 36.1575 12.6860 0.0000 8.7249 -1.3748 8.2529 9.4916 32.8623 0.0000 -24.3270 -10.1520 19.1376 31.4592 -39.0813 5.8573 -31.5188 -6.7122 -0.0000 -1.4124 0.0903 3.6380 -1.4224 33.1476 -0.0000 26.2537 -0.9755 3.5944 0.5801
 -3.0531 33.2089 -2.3863 7.0301 -3.6799 3.2116 -2.0042 -1.5359 0.4210 1.6355 -0.0000 -0.0000 -11.6026 -3.5385 -3.8573 2.7609 -0.0000 -0.0000 -2.5507 -0.1949 -2.6463 4.6493 -0.0000 0.0000 -11.6063 9.2836 -8.3437 9.4150 0.0000 -0.0000 -9.3958 -3.1380 -2.6542 3.4757 -21.5404 -27.2720 -35.4999 -6.4051 36.1710 12.6935 0.0000 8.7619 -1.3682 8.2683 9.4300 32.8623 0.0000 -24.3270 -10.1373 19.1380 31.4321 -39.1175 5.8927 -31.4998 -6.7535 -0.0000 -1.3969 0.0867 3.6431 -1.3639 33.1476 -0.0000 26.2537 -0.9508 3.5862 0.5649
 -3.0533 33.2078 -2.3835 7.0272 -3.6746 3.2135 -2.0009 -1.5366 0.4191 1.6477 -0.0000 -0.0000 -11.6231 -3.5486 -3.8414 2.7585 -0.0000 -0.0000 -2.5506 -0.2189 -2.6493 4.6630 0.0000 -0.0000 -11.6252 9.2959 -8.3226 9.4317 -0.0000 -0.0000 -9.3925 -3.1242 -2.6651 3.4447 -21.5373 -27.2630 -35.4747 -6.4082 36.1617 12.6886 0.0000 8.7814 -1.3722 8.2965 9.4253 32.8623 0.0000 -24.3270 -10.1466 19.1444 31.4467 -39.1027 5.8653 -31.5191 -6.7394 -0.0000 -1.4279 0.0855 3.6395 -1.3459 33.1476 -0.0000 26.2537 -0.9506 3.5870 0.5930
 -3.0534 33.2074 -2.3794 7.0195 -3.6673 3.2073 -1.9848 -1.5477 0.4240 1.6468 0.0000 0.0000 -11.6249 -3.5429 -3.8418 2.7563 -0.0000 0.0000 -2.5419 -0.2224 -2.6444 4.6739 0.0000 -0.0000 -11.6351 9.2958 -8.3397 9.4230 -0.0000 0.0000 -9.3973 -3.1324 -2.6575 3.4776 -21.5344 -27.2590 -35.4892 -6.4274 36.1673 12.7101 0.0000 8.7639 -1.3689 8.2904 9.4103 32.8623 0.0000 -24.3270 -10.3237 18.9928 31.5325 -38.8443 5.9661 -31.5084 -6.8119 -0.0000 -1.4286 0.0864 3.6675 -1.3506 33.1476 -0.0000 26.2537 -0.9174 3.5841 0.5859
 -3.0535 33.2069 -2.3763 7.0172 -3.6550 3.2039 -1.9788 -1.5606 0.4273 1.6522 -0.0000 -0.0000 -11.6354 -3.5452 -3.8406 2.7487 -0.0000 0.0000 -2.5447 -0.2476 -2.6436 4.6900 -0.0000 -0.0000 -11.6512 9.3072 -8.3184 9.4286 0.0000 0.0000 -9.4021 -3.1324 -2.6542 3.4671 -21.5276 -27.2645 -35.4854 -6.4603 36.1667 12.7304 0.0000 8.7783 -1.3821 8.3220 9.4637 32.8623 0.0000 -24.3270 -10.3234 18.9932 31.5291 -38.8610 5.9857 -31.5077 -6.8271 -0.0000 -1.4237 0.0852 3.6363 -1.3437 33.1476 -0.0000 26.2537 -0.8994 3.5705 0.5861
 -3.0539 33.2065 -2.3721 7.0130 -3.6479 3.2015 -1.9637 -1.5644 0.4279 1.6489 -0.0000 -0.0000 -11.6460 -3.5391 -3.8436 2.7782 -0.0000 -0.0000 -2.5381 -0.2566 -2.6403 4.6996 0.0000 -0.0000 -11.6640 9.3022 -8.3160 9.4039 -0.0000 0.0000 -9.4086 -3.1192 -2.6575 3.4681 -21.5387 -27.2534 -35.4727 -6.4483 36.1685 12.7311 0.0000 8.7707 -1.3761 8.3183 9.4280 32.8623 0.0000 -24.3270 -10.1993 19.0971 31.4558 -39.0418 5.9213 -31.4999 -6.8261 -0.0000 -1.3974 0.0864 3.6298 -1.3645 33.1476 -0.0000 26.2537 -0.8734 3.5694 0.6043
 -3.0526 33.2055 -2.3706 7.0101 -3.6472 3.1991 -1.9659 -1.5628 0.4279 1.6638 -0.0000 -0.0000 -11.6512 -3.5500 -3.8215 2.7462 -0.0000 0.0000 -2.5414 -0.2665 -2.6429 4.7156 0.0000 0.0000 -11.6782 9.3228 -8.3235 9.4088 -0.0000 -0.0000 -9.4049 -3.1209 -2.6574 3.4749 -21.5242 -27.2388 -35.4753 -6.4563 36.1562 12.7492 0.0000 8.7658 -1.3864 8.3211 9.4937 32.8623 0.0000 -24.3270 -10.2110 19.1119 31.4655 -39.0502 5.9344 -31.5085 -6.8460 -0.0000 -1.3761 0.0856 3.6360 -1.3500 33.1476 -0.0000 26.2537 -0.8597 3.5941 0.6270
 -3.0534 33.2049 -2.3662 7.0001 -3.6451 3.1993 -1.9475 -1.5796 0.4281 1.6649 -0.0000 0.0000 -11.6608 -3.5358 -3.8346 2.7187 0.0000 0.0000 -2.5278 -0.2830 -2.6412 4.7231 0.0000 -0.0000 -11.6897 9.3228 -8.3196 9.4207 -0.0000 0.0000 -9.4068 -3.1066 -2.6627 3.4899 -21.5357 -27.2296 -35.4845 -6.4625 36.1654 12.7647 0.0000 8.7870 -1.3761 8.3043 9.4434 32.8623 0.0000 -24.3270 -10.1537 19.1483 31.4440 -39.1328 5.9223 -31.5083 -6.8309 -0.0000 -1.3539 0.0843 3.6080 -1.3386 33.1476 -0.0000 26.2537 -0.8311 3.5849 0.6328
 -3.0521 33.2042 -2.3626 6.9955 -3.6467 3.2017 -1.9337 -1.5575 0.4233 1.6595 -0.0000 -0.0000 -11.6725 -3.5562 -3.8289 2.7300 0.0000 -0.0000 -2.5209 -0.2949 -2.6489 4.7321 -0.0000 0.0000 -11.7068 9.3396 -8.3011 9.4348 -0.0000 -0.0000 -9.4060 -3.0928 -2.6638 3.4852 -21.5378 -27.2301 -35.4601 -6.4562 36.1703 12.7783 0.0000 8.7797 -1.3806 8.3192 9.4567 32.8623 0.0000 -24.3270 -10.1951 19.1221 31.4567 -39.0611 5.9132 -31.5056 -6.8357 -0.0000 -1.3923 0.0851 3.6262 -1.3452 33.1476 -0.0000 26.2537 -0.8165 3.5660 0.6334
 -3.0529 33.2040 -2.3592 6.9927 -3.6386 3.1956 -1.9271 -1.5610 0.4276 1.6656 -0.0000 0.0000 -11.6780 -3.5517 -3.8297 2.7416 0.0000 -0.0000 -2.5190 -0.2998 -2.6426 4.7474 0.0000 -0.0000 -11.7241 9.3382 -8.2902 9.4221 0.0000 -0.0000 -9.4060 -3.0832 -2.6611 3.4745 -21.5539 -27.2237 -35.4515 -6.4437 36.1777 12.7781 0.0000 8.7728 -1.3828 8.3562 9.4307 32.8623 0.0000 -24.3270 -10.1797 19.1399 31.4408 -39.0690 5.8792 -31.5008 -6.8318 -0.0000 -1.4128 0.0860 3.6317 -1.3569 33.1476 -0.0000 26.2537 -0.8067 3.5586 0.6336
 -3.0524 33.2028 -2.3559 6.9893 -3.6408 3.1983 -1.9222 -1.5417 0.4281 1.6763 0.0000 0.0000 -11.7060 -3.5834 -3.8438 2.7660 -0.0000 -0.0000 -2.5130 -0.2977 -2.6475 4.7516 0.0000 0.0000 -11.7301 9.3492 -8.2906 9.3975 0.0000 0.0000 -9.4089 -3.0725 -2.6672 3.4691 -21.5483 -27.2193 -35.4459 -6.4489 36.1786 12.7924 0.0000 8.7736 -1.3842 8.3486 9.4489 32.8623 0.0000 -24.3270 -10.1888 19.1374 31.4529 -39.0701 5.8946 -31.5001 -6.8404 -0.0000 -1.3890 0.0858 3.6390 -1.3523 33.1476 -0.0000 26.2537 -0.7822 3.5570 0.6455
 -3.0520 33.2024 -2.3527 6.9882 -3.6394 3.1982 -1.9149 -1.5411 0.4273 1.6751 0.0000 -0.0000 -11.7047 -3.5902 -3.8352 2.7222 0.0000 0.0000 -2.5121 -0.3192 -2.6498 4.7628 -0.0000 0.0000 -11.7436 9.3687 -8.2757 9.4000 -0.0000 -0.0000 -9.4140 -3.0660 -2.6635 3.4790 -21.5568 -27.2223 -35.4513 -6.4497 36.1927 12.8028 0.0000 8.7703 -1.3896 8.3752 9.4555 32.8623 0.0000 -24.3270 -10.1824 19.1371 31.4347 -39.0527 5.8801 -31.4769 -6.8367 -0.0000 -1.4025 0.0867 3.6082 -1.3774 33.1476 -0.0000 26.2537 -0.7576 3.5590 0.6327
 -3.0517 33.2020 -2.3497 6.9832 -3.6469 3.1999 -1.9135 -1.5432 0.4230 1.6941 -0.0000 -0.0000 -11.7231 -3.5805 -3.8120 2.7522 0.0000 0.0000 -2.5022 -0.3275 -2.6527 4.7663 0.0000 -0.0000 -11.7497 9.3708 -8.2932 9.4468 0.0000 -0.0000 -9.4119 -3.0551 -2.6668 3.4634 -21.5433 -27.2218 -35.4270 -6.4450 36.1989 12.8116 0.0000 8.7447 -1.3882 8.3487 9.4755 32.8623 0.0000 -24.3270 -10.2074 19.1230 31.4465 -39.0098 5.9000 -31.4654 -6.8690 -0.0000 -1.4112 0.0887 3.6290 -1.4016 33.1476 -0.0000 26.2537 -0.7348 3.5705 0.6355
 -3.0511 33.2015 -2.3473 6.9824 -3.6501 3.1979 -1.9120 -1.5328 0.4256 1.6999 0.0000 -0.0000 -11.7299 -3.5823 -3.8627 2.7226 -0.0000 0.0000 -2.4993 -0.3431 -2.6534 4.7694 -0.0000 -0.0000 -11.7599 9.3932 -8.2612 9.4047 0.0000 0.0000 -9.4171 -3.0520 -2.6613 3.4726 -21.5455 -27.2156 -35.4554 -6.4365 36.2056 12.8087 0.0000 8.8518 -1.3783 8.4012 9.3516 32.8623 0.0000 -24.3270 -10.1691 19.1582 31.4265 -39.0473 5.8950 -31.4569 -6.8792 -0.0000 -1.4178 0.0884 3.6352 -1.3946 33.1476 -0.0000 26.2537 -0.7086 3.5938 0.6254
 -3.0514 33.2010 -2.3443 6.9736 -3.6546 3.1947 -1.8975 -1.5277 0.4275 1.6963 0.0000 -0.0000 -11.7247 -3.5872 -3.8266 2.6973 0.0000 -0.0000 -2.4921 -0.3473 -2.6506 4.7857 -0.0000 -0.0000 -11.7755 9.3973 -8.2576 9.3951 -0.0000 -0.0000 -9.4107 -3.0405 -2.6606 3.4596 -21.5293 -27.2139 -35.4395 -6.4417 36.2083 12.8138 0.0000 8.8436 -1.3775 8.3860 9.3631 32.8623 0.0000 -24.3270 -10.1593 19.1694 31.4219 -39.0572 5.8935 -31.4477 -6.8845 -0.0000 -1.4129 0.0906 3.6601 -1.4196 33.1476 -0.0000 26.2537 -0.6835 3.5838 0.6292
 -3.0534 33.2002 -2.3396 6.9557 -3.6568 3.1930 -1.8707 -1.5338 0.4314 1.6974 -0.0000 -0.0000 -11.7443 -3.5819 -3.8361 2.7483 0.0000 -0.0000 -2.4627 -0.3463 -2.6463 4.7816 -0.0000 0.0000 -11.7786 9.3930 -8.2710 9.3926 -0.0000 -0.0000 -9.4026 -3.0376 -2.6685 3.4808 -21.5358 -27.2067 -35.4311 -6.4124 36.2340 12.8071 0.0000 8.8231 -1.3691 8.3738 9.3199 32.8623 0.0000 -24.3270 -10.1692 19.1598 31.4304 -39.0428 5.9022 -31.4275 -6.8804 -0.0000 -1.4116 0.0900 3.6630 -1.4078 33.1476 -0.0000 26.2537 -0.6518 3.5932 0.6318
